# xmcd
#
# Track frame offsets: 
#        150
#        10254
#        19855
#        34807
#        45405
#        54802
#        63775
#        73140
#        84572
#        95689
#        108722
#        117695
#
# Disc length: 1670 seconds
#
# Revision: 9
# Processed by: cddbd v1.5.2PL0 Copyright (c) Steve Scherf et al.
# Submitted via: ExactAudioCopyFreeDBPlugin 1.0
#
DISCID=9e06840c
DTITLE=Georges Brassens - Vol.01 - La Mauvaise Réputation
DYEAR=2006
DGENRE=Chanson française
TTITLE0=1952 - La mauvaise réputation
TTITLE1=1952 - Le fossoyeur
TTITLE2=1952 - Le gorille
TTITLE3=1952 - Le petit cheval  (poème de Paul Fort)
TTITLE4=1953 - Ballade des dames du temps jadis  (poème de François Vi
TTITLE4=llon)
TTITLE5=1952 - Hécatombe
TTITLE6=1952 - La chasse aux papillons
TTITLE7=1952 - Le parapluie
TTITLE8=1953 - La marine  (poème de Paul Fort)
TTITLE9=1952 - Corne d'Aurochs
TTITLE10=1953 - Il suffit de passer le pont
TTITLE11=1953 - Comme hier  (poème de Paul Fort)
EXTD=L'intégrale 2006
EXTT0=
EXTT1=
EXTT2=
EXTT3=
EXTT4=
EXTT5=
EXTT6=
EXTT7=
EXTT8=
EXTT9=
EXTT10=
EXTT11=
PLAYORDER=
